<svg width="296px" height="476px"
 viewBox="0.00 0.00 295.75 476.00" xmlns="http://www.w3.org/2000/svg" xmlns:xlink="http://www.w3.org/1999/xlink">
<g id="graph0" class="graph" transform="scale(1.0 1.0) rotate(0.0) translate(4.0 472.0)">
<title>petriNet</title>
<polygon fill="white" stroke="none" points="-4,4 -4,-472 291.75,-472 291.75,4 -4,4"/>
<!-- 0 -->
<g id="node1" class="node">
<title>0</title>
<ellipse fill="none" stroke="green" cx="53.75" cy="-306" rx="18" ry="18"/>
<text text-anchor="middle" x="53.75" y="-300.95" font-family="Times New Roman,serif" font-size="14.00">0</text>
</g>
<!-- categorize -->
<g id="node2" class="node">
<title>categorize</title>
<polygon fill="none" stroke="blue" points="71.5,-252 0,-252 0,-216 71.5,-216 71.5,-252"/>
<text text-anchor="middle" x="35.75" y="-228.95" font-family="Times New Roman,serif" font-size="14.00">categorize</text>
</g>
<!-- 0&#45;&gt;categorize -->
<g id="edge1" class="edge">
<title>0&#45;&gt;categorize</title>
<path fill="none" stroke="black" d="M49.39,-288.05C47.48,-280.6 45.17,-271.64 43.01,-263.22"/>
<polygon fill="black" stroke="black" points="46.45,-262.55 40.57,-253.74 39.67,-264.3 46.45,-262.55"/>
</g>
<!-- 2 -->
<g id="node3" class="node">
<title>2</title>
<ellipse fill="none" stroke="green" cx="152.75" cy="-162" rx="18" ry="18"/>
<text text-anchor="middle" x="152.75" y="-156.95" font-family="Times New Roman,serif" font-size="14.00">2</text>
</g>
<!-- categorize&#45;&gt;2 -->
<g id="edge2" class="edge">
<title>categorize&#45;&gt;2</title>
<path fill="none" stroke="black" d="M64.97,-215.52C84.3,-203.95 109.37,-188.95 127.77,-177.95"/>
<polygon fill="black" stroke="black" points="129.4,-181.05 136.18,-172.91 125.8,-175.04 129.4,-181.05"/>
</g>
<!-- ARTIFICIAL_END -->
<g id="node4" class="node">
<title>ARTIFICIAL_END</title>
<polygon fill="none" stroke="blue" points="215.12,-108 90.38,-108 90.38,-72 215.12,-72 215.12,-108"/>
<text text-anchor="middle" x="152.75" y="-84.95" font-family="Times New Roman,serif" font-size="14.00">ARTIFICIAL_END</text>
</g>
<!-- 2&#45;&gt;ARTIFICIAL_END -->
<g id="edge3" class="edge">
<title>2&#45;&gt;ARTIFICIAL_END</title>
<path fill="none" stroke="black" d="M152.75,-143.7C152.75,-136.41 152.75,-127.73 152.75,-119.54"/>
<polygon fill="black" stroke="black" points="156.25,-119.62 152.75,-109.62 149.25,-119.62 156.25,-119.62"/>
</g>
<!-- 6 -->
<g id="node5" class="node">
<title>6</title>
<ellipse fill="none" stroke="green" cx="152.75" cy="-18" rx="18" ry="18"/>
<text text-anchor="middle" x="152.75" y="-12.95" font-family="Times New Roman,serif" font-size="14.00">6</text>
</g>
<!-- ARTIFICIAL_END&#45;&gt;6 -->
<g id="edge4" class="edge">
<title>ARTIFICIAL_END&#45;&gt;6</title>
<path fill="none" stroke="black" d="M152.75,-71.7C152.75,-64.41 152.75,-55.73 152.75,-47.54"/>
<polygon fill="black" stroke="black" points="156.25,-47.62 152.75,-37.62 149.25,-47.62 156.25,-47.62"/>
</g>
<!-- 1 -->
<g id="node6" class="node">
<title>1</title>
<ellipse fill="none" stroke="green" cx="151.75" cy="-450" rx="18" ry="18"/>
<text text-anchor="middle" x="151.75" y="-444.95" font-family="Times New Roman,serif" font-size="14.00">1</text>
</g>
<!-- ARTIFICIAL_START -->
<g id="node7" class="node">
<title>ARTIFICIAL_START</title>
<polygon fill="none" stroke="blue" points="220.88,-396 82.62,-396 82.62,-360 220.88,-360 220.88,-396"/>
<text text-anchor="middle" x="151.75" y="-372.95" font-family="Times New Roman,serif" font-size="14.00">ARTIFICIAL_START</text>
</g>
<!-- 1&#45;&gt;ARTIFICIAL_START -->
<g id="edge5" class="edge">
<title>1&#45;&gt;ARTIFICIAL_START</title>
<path fill="none" stroke="black" d="M151.75,-431.7C151.75,-424.41 151.75,-415.73 151.75,-407.54"/>
<polygon fill="black" stroke="black" points="155.25,-407.62 151.75,-397.62 148.25,-407.62 155.25,-407.62"/>
</g>
<!-- ARTIFICIAL_START&#45;&gt;0 -->
<g id="edge9" class="edge">
<title>ARTIFICIAL_START&#45;&gt;0</title>
<path fill="none" stroke="black" d="M127.27,-359.52C112.02,-348.62 92.49,-334.67 77.4,-323.89"/>
<polygon fill="black" stroke="black" points="79.61,-321.17 69.44,-318.21 75.54,-326.87 79.61,-321.17"/>
</g>
<!-- 4 -->
<g id="node8" class="node">
<title>4</title>
<ellipse fill="none" stroke="green" cx="120.75" cy="-306" rx="18" ry="18"/>
<text text-anchor="middle" x="120.75" y="-300.95" font-family="Times New Roman,serif" font-size="14.00">4</text>
</g>
<!-- ARTIFICIAL_START&#45;&gt;4 -->
<g id="edge6" class="edge">
<title>ARTIFICIAL_START&#45;&gt;4</title>
<path fill="none" stroke="black" d="M144.09,-359.7C140.52,-351.64 136.2,-341.88 132.25,-332.96"/>
<polygon fill="black" stroke="black" points="135.55,-331.78 128.3,-324.06 129.15,-334.62 135.55,-331.78"/>
</g>
<!-- 3 -->
<g id="node10" class="node">
<title>3</title>
<ellipse fill="none" stroke="green" cx="183.75" cy="-306" rx="18" ry="18"/>
<text text-anchor="middle" x="183.75" y="-300.95" font-family="Times New Roman,serif" font-size="14.00">3</text>
</g>
<!-- ARTIFICIAL_START&#45;&gt;3 -->
<g id="edge7" class="edge">
<title>ARTIFICIAL_START&#45;&gt;3</title>
<path fill="none" stroke="black" d="M159.66,-359.7C163.34,-351.64 167.81,-341.88 171.88,-332.96"/>
<polygon fill="black" stroke="black" points="174.98,-334.6 175.96,-324.05 168.62,-331.69 174.98,-334.6"/>
</g>
<!-- 5 -->
<g id="node12" class="node">
<title>5</title>
<ellipse fill="none" stroke="green" cx="250.75" cy="-306" rx="18" ry="18"/>
<text text-anchor="middle" x="250.75" y="-300.95" font-family="Times New Roman,serif" font-size="14.00">5</text>
</g>
<!-- ARTIFICIAL_START&#45;&gt;5 -->
<g id="edge8" class="edge">
<title>ARTIFICIAL_START&#45;&gt;5</title>
<path fill="none" stroke="black" d="M176.48,-359.52C191.89,-348.62 211.61,-334.67 226.86,-323.89"/>
<polygon fill="black" stroke="black" points="228.77,-326.83 234.91,-318.2 224.72,-321.12 228.77,-326.83"/>
</g>
<!-- edit -->
<g id="node9" class="node">
<title>edit</title>
<polygon fill="none" stroke="blue" points="143.75,-252 89.75,-252 89.75,-216 143.75,-216 143.75,-252"/>
<text text-anchor="middle" x="116.75" y="-228.95" font-family="Times New Roman,serif" font-size="14.00">edit</text>
</g>
<!-- 4&#45;&gt;edit -->
<g id="edge10" class="edge">
<title>4&#45;&gt;edit</title>
<path fill="none" stroke="black" d="M119.76,-287.7C119.34,-280.41 118.85,-271.73 118.38,-263.54"/>
<polygon fill="black" stroke="black" points="121.88,-263.4 117.81,-253.62 114.89,-263.8 121.88,-263.4"/>
</g>
<!-- edit&#45;&gt;2 -->
<g id="edge11" class="edge">
<title>edit&#45;&gt;2</title>
<path fill="none" stroke="black" d="M125.65,-215.7C129.9,-207.43 135.07,-197.38 139.75,-188.28"/>
<polygon fill="black" stroke="black" points="142.78,-190.04 144.24,-179.55 136.55,-186.84 142.78,-190.04"/>
</g>
<!-- new -->
<g id="node11" class="node">
<title>new</title>
<polygon fill="none" stroke="blue" points="215.75,-252 161.75,-252 161.75,-216 215.75,-216 215.75,-252"/>
<text text-anchor="middle" x="188.75" y="-228.95" font-family="Times New Roman,serif" font-size="14.00">new</text>
</g>
<!-- 3&#45;&gt;new -->
<g id="edge12" class="edge">
<title>3&#45;&gt;new</title>
<path fill="none" stroke="black" d="M184.99,-287.7C185.51,-280.41 186.13,-271.73 186.71,-263.54"/>
<polygon fill="black" stroke="black" points="190.2,-263.84 187.42,-253.61 183.22,-263.34 190.2,-263.84"/>
</g>
<!-- new&#45;&gt;2 -->
<g id="edge13" class="edge">
<title>new&#45;&gt;2</title>
<path fill="none" stroke="black" d="M179.85,-215.7C175.6,-207.43 170.43,-197.38 165.75,-188.28"/>
<polygon fill="black" stroke="black" points="168.95,-186.84 161.26,-179.55 162.72,-190.04 168.95,-186.84"/>
</g>
<!-- log -->
<g id="node13" class="node">
<title>log</title>
<polygon fill="none" stroke="blue" points="287.75,-252 233.75,-252 233.75,-216 287.75,-216 287.75,-252"/>
<text text-anchor="middle" x="260.75" y="-228.95" font-family="Times New Roman,serif" font-size="14.00">log</text>
</g>
<!-- 5&#45;&gt;log -->
<g id="edge14" class="edge">
<title>5&#45;&gt;log</title>
<path fill="none" stroke="black" d="M253.22,-287.7C254.28,-280.32 255.53,-271.52 256.71,-263.25"/>
<polygon fill="black" stroke="black" points="260.14,-264 258.09,-253.6 253.21,-263.01 260.14,-264"/>
</g>
<!-- log&#45;&gt;2 -->
<g id="edge15" class="edge">
<title>log&#45;&gt;2</title>
<path fill="none" stroke="black" d="M233.78,-215.52C216.33,-204.21 193.82,-189.62 176.95,-178.69"/>
<polygon fill="black" stroke="black" points="179.32,-176.05 169.02,-173.55 175.51,-181.92 179.32,-176.05"/>
</g>
</g>
</svg>
